# Blender v2.79 (sub 0) OBJ File: ''
# www.blender.org
mtllib saturn_rings.mtl
o Circle
v -0.118249 -0.026279 -1.394750
v -0.379850 -0.092187 -1.344327
v -0.626854 -0.154554 -1.242243
v -0.849768 -0.210980 -1.092420
v -1.040026 -0.259299 -0.900616
v -1.190317 -0.297654 -0.674201
v -1.294864 -0.324569 -0.421878
v -1.349651 -0.339012 -0.153342
v -1.352571 -0.340426 0.121086
v -1.303513 -0.328758 0.390862
v -1.204361 -0.304456 0.645617
v -1.058926 -0.268454 0.875561
v -0.872798 -0.222136 1.071858
v -0.653128 -0.167281 1.226964
v -0.408359 -0.105997 1.334919
v -0.147897 -0.040640 1.391573
v 0.118249 0.026279 1.394750
v 0.379850 0.092188 1.344327
v 0.626854 0.154554 1.242242
v 0.849769 0.210981 1.092419
v 1.040027 0.259299 0.900615
v 1.190317 0.297654 0.674201
v 1.294865 0.324569 0.421877
v 1.349651 0.339012 0.153341
v 1.352571 0.340426 -0.121088
v 1.303512 0.328758 -0.390864
v 1.204360 0.304456 -0.645618
v 1.058925 0.268454 -0.875563
v 0.872796 0.222135 -1.071859
v 0.653126 0.167280 -1.226965
v 0.408357 0.105997 -1.334919
v 0.147895 0.040640 -1.391573
v -0.184089 -0.040910 -2.171345
v -0.591350 -0.143517 -2.092847
v -0.975886 -0.240609 -1.933923
v -1.322919 -0.328454 -1.700678
v -1.619113 -0.403677 -1.402078
v -1.853086 -0.463387 -1.049596
v -2.015845 -0.505289 -0.656780
v -2.101136 -0.527773 -0.238723
v -2.105682 -0.529975 0.188508
v -2.029308 -0.511811 0.608494
v -1.874949 -0.473977 1.005096
v -1.648536 -0.417930 1.363074
v -1.358771 -0.345821 1.668669
v -1.016790 -0.260423 1.910138
v -0.635733 -0.165016 2.078201
v -0.230246 -0.063268 2.166400
v 0.184090 0.040911 2.171346
v 0.591351 0.143518 2.092848
v 0.975887 0.240609 1.933923
v 1.322920 0.328455 1.700678
v 1.619114 0.403677 1.402078
v 1.853086 0.463387 1.049596
v 2.015845 0.505289 0.656778
v 2.101137 0.527773 0.238721
v 2.105682 0.529975 -0.188509
v 2.029308 0.511811 -0.608496
v 1.874948 0.473977 -1.005098
v 1.648535 0.417929 -1.363075
v 1.358769 0.345820 -1.668670
v 1.016787 0.260422 -1.910138
v 0.635731 0.165016 -2.078201
v 0.230243 0.063268 -2.166400
vn -0.2439 0.9698 0.0024
usemtl None
s off
f 24//1 23//1 55//1 56//1
f 11//1 10//1 42//1 43//1
f 25//1 24//1 56//1 57//1
f 12//1 11//1 43//1 44//1
f 26//1 25//1 57//1 58//1
f 13//1 12//1 44//1 45//1
f 27//1 26//1 58//1 59//1
f 14//1 13//1 45//1 46//1
f 28//1 27//1 59//1 60//1
f 15//1 14//1 46//1 47//1
f 2//1 1//1 33//1 34//1
f 29//1 28//1 60//1 61//1
f 16//1 15//1 47//1 48//1
f 3//1 2//1 34//1 35//1
f 30//1 29//1 61//1 62//1
f 17//1 16//1 48//1 49//1
f 4//1 3//1 35//1 36//1
f 31//1 30//1 62//1 63//1
f 18//1 17//1 49//1 50//1
f 5//1 4//1 36//1 37//1
f 32//1 31//1 63//1 64//1
f 19//1 18//1 50//1 51//1
f 6//1 5//1 37//1 38//1
f 1//1 32//1 64//1 33//1
f 20//1 19//1 51//1 52//1
f 7//1 6//1 38//1 39//1
f 21//1 20//1 52//1 53//1
f 8//1 7//1 39//1 40//1
f 22//1 21//1 53//1 54//1
f 9//1 8//1 40//1 41//1
f 23//1 22//1 54//1 55//1
f 10//1 9//1 41//1 42//1
